STARTFONT 2.1
COMMENT Font converted from VGA/EGA to BDF.
FONT -DOS-Keyrus-Medium-R-Normal--16-160-72-72-C-80-CP-866
SIZE 16 72 72
FONTBOUNDINGBOX 8 16 0 -4
STARTPROPERTIES 17
POINT_SIZE 160
PIXEL_SIZE 16
RESOLUTION_X 72
RESOLUTION_Y 72
FONT_ASCENT 12
FONT_DESCENT 4
AVERAGE_WIDTH 80
SPACING "C"
FOUNDRY "DOS"
FAMILY_NAME "Keyrus"
WEIGHT_NAME "Medium"
SLANT "R"
SETWIDTH_NAME "Normal"
ADD_STYLE_NAME ""
CHARSET_REGISTRY "CP"
CHARSET_ENCODING "866"
_GBDFED_INFO "Edited with gbdfed 1.1."
ENDPROPERTIES
CHARS 256
STARTCHAR char0
ENCODING 0
SWIDTH 500 0
DWIDTH 8 0
BBX 8 16 0 -4
BITMAP
00
00
00
00
00
00
00
00
00
00
00
00
00
00
00
00
ENDCHAR
STARTCHAR char1
ENCODING 1
SWIDTH 500 0
DWIDTH 8 0
BBX 8 16 0 -4
BITMAP
00
3C
42
81
A5
A5
81
81
A5
99
42
3C
00
00
00
00
ENDCHAR
STARTCHAR char2
ENCODING 2
SWIDTH 500 0
DWIDTH 8 0
BBX 8 16 0 -4
BITMAP
00
3C
7E
FF
DB
DB
FF
FF
DB
E7
7E
3C
00
00
00
00
ENDCHAR
STARTCHAR char3
ENCODING 3
SWIDTH 500 0
DWIDTH 8 0
BBX 8 16 0 -4
BITMAP
00
00
6C
EE
FE
FE
FE
7C
7C
38
10
00
00
00
00
00
ENDCHAR
STARTCHAR char4
ENCODING 4
SWIDTH 500 0
DWIDTH 8 0
BBX 8 16 0 -4
BITMAP
00
00
10
38
7C
FE
FE
FE
7C
38
10
00
00
00
00
00
ENDCHAR
STARTCHAR char5
ENCODING 5
SWIDTH 500 0
DWIDTH 8 0
BBX 8 16 0 -4
BITMAP
00
00
38
38
38
10
D6
FE
D6
10
38
38
00
00
00
00
ENDCHAR
STARTCHAR char6
ENCODING 6
SWIDTH 500 0
DWIDTH 8 0
BBX 8 16 0 -4
BITMAP
00
00
10
10
38
7C
FE
FE
D6
10
10
38
00
00
00
00
ENDCHAR
STARTCHAR char7
ENCODING 7
SWIDTH 500 0
DWIDTH 8 0
BBX 8 16 0 -4
BITMAP
00
00
00
00
18
3C
3C
3C
3C
18
00
00
00
00
00
00
ENDCHAR
STARTCHAR char8
ENCODING 8
SWIDTH 500 0
DWIDTH 8 0
BBX 8 16 0 -4
BITMAP
FF
FF
FF
FF
E7
C3
C3
C3
C3
E7
FF
FF
FF
FF
00
00
ENDCHAR
STARTCHAR char9
ENCODING 9
SWIDTH 500 0
DWIDTH 8 0
BBX 8 16 0 -4
BITMAP
00
00
00
3C
24
66
42
42
42
66
24
3C
00
00
00
00
ENDCHAR
STARTCHAR char10
ENCODING 10
SWIDTH 500 0
DWIDTH 8 0
BBX 8 16 0 -4
BITMAP
FF
FF
FF
C3
DB
99
BD
BD
BD
99
DB
C3
FF
FF
00
00
ENDCHAR
STARTCHAR char11
ENCODING 11
SWIDTH 500 0
DWIDTH 8 0
BBX 8 16 0 -4
BITMAP
00
00
1E
06
0A
72
88
88
88
88
70
00
00
00
00
00
ENDCHAR
STARTCHAR char12
ENCODING 12
SWIDTH 500 0
DWIDTH 8 0
BBX 8 16 0 -4
BITMAP
00
00
38
44
44
44
44
38
10
7C
10
00
00
00
00
00
ENDCHAR
STARTCHAR char13
ENCODING 13
SWIDTH 500 0
DWIDTH 8 0
BBX 8 16 0 -4
BITMAP
00
00
10
18
14
12
12
10
70
F0
E0
00
00
00
00
00
ENDCHAR
STARTCHAR char14
ENCODING 14
SWIDTH 500 0
DWIDTH 8 0
BBX 8 16 0 -4
BITMAP
00
20
30
28
24
32
2A
26
E2
C2
0E
0C
00
00
00
00
ENDCHAR
STARTCHAR char15
ENCODING 15
SWIDTH 500 0
DWIDTH 8 0
BBX 8 16 0 -4
BITMAP
00
10
92
BA
44
44
C6
44
44
BA
92
10
00
00
00
00
ENDCHAR
STARTCHAR char16
ENCODING 16
SWIDTH 500 0
DWIDTH 8 0
BBX 8 16 0 -4
BITMAP
00
00
00
00
80
E0
F8
FE
F8
E0
80
00
00
00
00
00
ENDCHAR
STARTCHAR char17
ENCODING 17
SWIDTH 500 0
DWIDTH 8 0
BBX 8 16 0 -4
BITMAP
00
00
00
00
02
0E
3E
FE
3E
0E
02
00
00
00
00
00
ENDCHAR
STARTCHAR char18
ENCODING 18
SWIDTH 500 0
DWIDTH 8 0
BBX 8 16 0 -4
BITMAP
00
10
38
7C
54
10
10
10
54
7C
38
10
00
00
00
00
ENDCHAR
STARTCHAR char19
ENCODING 19
SWIDTH 500 0
DWIDTH 8 0
BBX 8 16 0 -4
BITMAP
00
00
24
24
24
24
24
24
00
00
24
24
00
00
00
00
ENDCHAR
STARTCHAR char20
ENCODING 20
SWIDTH 500 0
DWIDTH 8 0
BBX 8 16 0 -4
BITMAP
00
00
7F
92
92
92
72
12
12
12
12
00
00
00
00
00
ENDCHAR
STARTCHAR char21
ENCODING 21
SWIDTH 500 0
DWIDTH 8 0
BBX 8 16 0 -4
BITMAP
00
38
44
40
20
58
84
42
34
08
04
44
38
00
00
00
ENDCHAR
STARTCHAR char22
ENCODING 22
SWIDTH 500 0
DWIDTH 8 0
BBX 8 16 0 -4
BITMAP
00
00
00
00
00
00
00
7E
7E
7E
7E
7E
00
00
00
00
ENDCHAR
STARTCHAR char23
ENCODING 23
SWIDTH 500 0
DWIDTH 8 0
BBX 8 16 0 -4
BITMAP
00
10
38
7C
54
10
10
54
7C
38
10
00
00
00
00
00
ENDCHAR
STARTCHAR char24
ENCODING 24
SWIDTH 500 0
DWIDTH 8 0
BBX 8 16 0 -4
BITMAP
00
00
10
38
7C
54
10
10
10
10
10
00
00
00
00
00
ENDCHAR
STARTCHAR char25
ENCODING 25
SWIDTH 500 0
DWIDTH 8 0
BBX 8 16 0 -4
BITMAP
00
00
10
10
10
10
10
54
7C
38
10
00
00
00
00
00
ENDCHAR
STARTCHAR char26
ENCODING 26
SWIDTH 500 0
DWIDTH 8 0
BBX 8 16 0 -4
BITMAP
00
00
00
00
00
18
0C
FE
0C
18
00
00
00
00
00
00
ENDCHAR
STARTCHAR char27
ENCODING 27
SWIDTH 500 0
DWIDTH 8 0
BBX 8 16 0 -4
BITMAP
00
00
00
00
00
30
60
FE
60
30
00
00
00
00
00
00
ENDCHAR
STARTCHAR char28
ENCODING 28
SWIDTH 500 0
DWIDTH 8 0
BBX 8 16 0 -4
BITMAP
00
00
00
00
00
40
40
40
40
40
7E
00
00
00
00
00
ENDCHAR
STARTCHAR char29
ENCODING 29
SWIDTH 500 0
DWIDTH 8 0
BBX 8 16 0 -4
BITMAP
00
00
00
00
00
24
66
FF
66
24
00
00
00
00
00
00
ENDCHAR
STARTCHAR char30
ENCODING 30
SWIDTH 500 0
DWIDTH 8 0
BBX 8 16 0 -4
BITMAP
00
00
00
00
10
10
38
38
7C
7C
FE
00
00
00
00
00
ENDCHAR
STARTCHAR char31
ENCODING 31
SWIDTH 500 0
DWIDTH 8 0
BBX 8 16 0 -4
BITMAP
00
00
00
00
FE
7C
7C
38
38
10
10
00
00
00
00
00
ENDCHAR
STARTCHAR char32
ENCODING 32
SWIDTH 500 0
DWIDTH 8 0
BBX 8 16 0 -4
BITMAP
00
00
00
00
00
00
00
00
00
00
00
00
00
00
00
00
ENDCHAR
STARTCHAR char33
ENCODING 33
SWIDTH 500 0
DWIDTH 8 0
BBX 8 16 0 -4
BITMAP
00
00
10
10
10
10
10
10
00
00
10
10
00
00
00
00
ENDCHAR
STARTCHAR char34
ENCODING 34
SWIDTH 500 0
DWIDTH 8 0
BBX 8 16 0 -4
BITMAP
00
00
24
24
24
24
00
00
00
00
00
00
00
00
00
00
ENDCHAR
STARTCHAR char35
ENCODING 35
SWIDTH 500 0
DWIDTH 8 0
BBX 8 16 0 -4
BITMAP
00
00
44
44
44
FE
44
44
FE
44
44
44
00
00
00
00
ENDCHAR
STARTCHAR char36
ENCODING 36
SWIDTH 500 0
DWIDTH 8 0
BBX 8 16 0 -4
BITMAP
00
10
7C
92
90
90
7C
12
12
92
7C
10
00
00
00
00
ENDCHAR
STARTCHAR char37
ENCODING 37
SWIDTH 500 0
DWIDTH 8 0
BBX 8 16 0 -4
BITMAP
00
60
90
92
64
08
10
20
4C
92
12
0C
00
00
00
00
ENDCHAR
STARTCHAR char38
ENCODING 38
SWIDTH 500 0
DWIDTH 8 0
BBX 8 16 0 -4
BITMAP
00
00
38
44
44
28
30
52
8A
8C
74
02
00
00
00
00
ENDCHAR
STARTCHAR char39
ENCODING 39
SWIDTH 500 0
DWIDTH 8 0
BBX 8 16 0 -4
BITMAP
00
00
08
08
10
10
00
00
00
00
00
00
00
00
00
00
ENDCHAR
STARTCHAR char40
ENCODING 40
SWIDTH 500 0
DWIDTH 8 0
BBX 8 16 0 -4
BITMAP
00
04
08
10
10
20
20
20
10
10
08
04
00
00
00
00
ENDCHAR
STARTCHAR char41
ENCODING 41
SWIDTH 500 0
DWIDTH 8 0
BBX 8 16 0 -4
BITMAP
00
40
20
10
10
08
08
08
10
10
20
40
00
00
00
00
ENDCHAR
STARTCHAR char42
ENCODING 42
SWIDTH 500 0
DWIDTH 8 0
BBX 8 16 0 -4
BITMAP
00
00
00
00
10
92
54
38
54
92
10
00
00
00
00
00
ENDCHAR
STARTCHAR char43
ENCODING 43
SWIDTH 500 0
DWIDTH 8 0
BBX 8 16 0 -4
BITMAP
00
00
00
00
10
10
10
FE
10
10
10
00
00
00
00
00
ENDCHAR
STARTCHAR char44
ENCODING 44
SWIDTH 500 0
DWIDTH 8 0
BBX 8 16 0 -4
BITMAP
00
00
00
00
00
00
00
00
00
00
30
30
20
40
00
00
ENDCHAR
STARTCHAR char45
ENCODING 45
SWIDTH 500 0
DWIDTH 8 0
BBX 8 16 0 -4
BITMAP
00
00
00
00
00
00
00
7E
00
00
00
00
00
00
00
00
ENDCHAR
STARTCHAR char46
ENCODING 46
SWIDTH 500 0
DWIDTH 8 0
BBX 8 16 0 -4
BITMAP
00
00
00
00
00
00
00
00
00
00
30
30
00
00
00
00
ENDCHAR
STARTCHAR char47
ENCODING 47
SWIDTH 500 0
DWIDTH 8 0
BBX 8 16 0 -4
BITMAP
00
02
02
04
04
08
08
08
10
10
20
20
00
00
00
00
ENDCHAR
STARTCHAR char48
ENCODING 48
SWIDTH 500 0
DWIDTH 8 0
BBX 8 16 0 -4
BITMAP
00
00
3C
42
46
46
4A
52
62
62
42
3C
00
00
00
00
ENDCHAR
STARTCHAR char49
ENCODING 49
SWIDTH 500 0
DWIDTH 8 0
BBX 8 16 0 -4
BITMAP
00
00
08
18
28
08
08
08
08
08
08
3E
00
00
00
00
ENDCHAR
STARTCHAR char50
ENCODING 50
SWIDTH 500 0
DWIDTH 8 0
BBX 8 16 0 -4
BITMAP
00
00
3C
42
42
02
04
08
10
20
42
7E
00
00
00
00
ENDCHAR
STARTCHAR char51
ENCODING 51
SWIDTH 500 0
DWIDTH 8 0
BBX 8 16 0 -4
BITMAP
00
00
3C
42
42
04
18
04
02
42
42
3C
00
00
00
00
ENDCHAR
STARTCHAR char52
ENCODING 52
SWIDTH 500 0
DWIDTH 8 0
BBX 8 16 0 -4
BITMAP
00
00
04
0C
14
24
44
84
FE
04
04
1E
00
00
00
00
ENDCHAR
STARTCHAR char53
ENCODING 53
SWIDTH 500 0
DWIDTH 8 0
BBX 8 16 0 -4
BITMAP
00
00
7E
40
40
7C
42
02
02
02
42
3C
00
00
00
00
ENDCHAR
STARTCHAR char54
ENCODING 54
SWIDTH 500 0
DWIDTH 8 0
BBX 8 16 0 -4
BITMAP
00
00
3C
42
40
40
7C
42
42
42
42
3C
00
00
00
00
ENDCHAR
STARTCHAR char55
ENCODING 55
SWIDTH 500 0
DWIDTH 8 0
BBX 8 16 0 -4
BITMAP
00
00
FE
82
84
04
08
08
10
10
10
10
00
00
00
00
ENDCHAR
STARTCHAR char56
ENCODING 56
SWIDTH 500 0
DWIDTH 8 0
BBX 8 16 0 -4
BITMAP
00
00
3C
42
42
24
18
24
42
42
42
3C
00
00
00
00
ENDCHAR
STARTCHAR char57
ENCODING 57
SWIDTH 500 0
DWIDTH 8 0
BBX 8 16 0 -4
BITMAP
00
00
3C
42
42
42
42
3E
02
02
42
3C
00
00
00
00
ENDCHAR
STARTCHAR char58
ENCODING 58
SWIDTH 500 0
DWIDTH 8 0
BBX 8 16 0 -4
BITMAP
00
00
00
00
30
30
00
00
00
30
30
00
00
00
00
00
ENDCHAR
STARTCHAR char59
ENCODING 59
SWIDTH 500 0
DWIDTH 8 0
BBX 8 16 0 -4
BITMAP
00
00
00
00
30
30
00
00
00
00
30
30
20
40
00
00
ENDCHAR
STARTCHAR char60
ENCODING 60
SWIDTH 500 0
DWIDTH 8 0
BBX 8 16 0 -4
BITMAP
00
00
02
04
08
10
20
20
10
08
04
02
00
00
00
00
ENDCHAR
STARTCHAR char61
ENCODING 61
SWIDTH 500 0
DWIDTH 8 0
BBX 8 16 0 -4
BITMAP
00
00
00
00
00
7E
00
00
00
7E
00
00
00
00
00
00
ENDCHAR
STARTCHAR char62
ENCODING 62
SWIDTH 500 0
DWIDTH 8 0
BBX 8 16 0 -4
BITMAP
00
00
40
20
10
08
04
04
08
10
20
40
00
00
00
00
ENDCHAR
STARTCHAR char63
ENCODING 63
SWIDTH 500 0
DWIDTH 8 0
BBX 8 16 0 -4
BITMAP
00
00
38
44
44
08
10
10
00
00
10
10
00
00
00
00
ENDCHAR
STARTCHAR char64
ENCODING 64
SWIDTH 500 0
DWIDTH 8 0
BBX 8 16 0 -4
BITMAP
00
38
44
82
9A
A6
A2
A2
9E
80
42
3C
00
00
00
00
ENDCHAR
STARTCHAR char65
ENCODING 65
SWIDTH 500 0
DWIDTH 8 0
BBX 8 16 0 -4
BITMAP
00
00
30
10
28
28
44
44
7C
82
82
C6
00
00
00
00
ENDCHAR
STARTCHAR char66
ENCODING 66
SWIDTH 500 0
DWIDTH 8 0
BBX 8 16 0 -4
BITMAP
00
00
FC
42
42
42
7C
42
42
42
42
FC
00
00
00
00
ENDCHAR
STARTCHAR char67
ENCODING 67
SWIDTH 500 0
DWIDTH 8 0
BBX 8 16 0 -4
BITMAP
00
00
3E
42
82
80
80
80
82
82
44
38
00
00
00
00
ENDCHAR
STARTCHAR char68
ENCODING 68
SWIDTH 500 0
DWIDTH 8 0
BBX 8 16 0 -4
BITMAP
00
00
F8
44
42
42
42
42
42
42
44
F8
00
00
00
00
ENDCHAR
STARTCHAR char69
ENCODING 69
SWIDTH 500 0
DWIDTH 8 0
BBX 8 16 0 -4
BITMAP
00
00
FE
42
40
44
7C
44
40
40
42
FE
00
00
00
00
ENDCHAR
STARTCHAR char70
ENCODING 70
SWIDTH 500 0
DWIDTH 8 0
BBX 8 16 0 -4
BITMAP
00
00
FE
42
40
44
7C
44
40
40
40
F0
00
00
00
00
ENDCHAR
STARTCHAR char71
ENCODING 71
SWIDTH 500 0
DWIDTH 8 0
BBX 8 16 0 -4
BITMAP
00
00
3C
42
82
80
80
9E
82
82
42
3E
00
00
00
00
ENDCHAR
STARTCHAR char72
ENCODING 72
SWIDTH 500 0
DWIDTH 8 0
BBX 8 16 0 -4
BITMAP
00
00
E6
42
42
42
42
7E
42
42
42
E6
00
00
00
00
ENDCHAR
STARTCHAR char73
ENCODING 73
SWIDTH 500 0
DWIDTH 8 0
BBX 8 16 0 -4
BITMAP
00
00
7C
10
10
10
10
10
10
10
10
7C
00
00
00
00
ENDCHAR
STARTCHAR char74
ENCODING 74
SWIDTH 500 0
DWIDTH 8 0
BBX 8 16 0 -4
BITMAP
00
00
1E
04
04
04
04
04
84
84
88
70
00
00
00
00
ENDCHAR
STARTCHAR char75
ENCODING 75
SWIDTH 500 0
DWIDTH 8 0
BBX 8 16 0 -4
BITMAP
00
00
CE
84
88
90
A0
D0
88
84
82
C6
00
00
00
00
ENDCHAR
STARTCHAR char76
ENCODING 76
SWIDTH 500 0
DWIDTH 8 0
BBX 8 16 0 -4
BITMAP
00
00
E0
40
40
40
40
40
40
42
42
FE
00
00
00
00
ENDCHAR
STARTCHAR char77
ENCODING 77
SWIDTH 500 0
DWIDTH 8 0
BBX 8 16 0 -4
BITMAP
00
00
C6
C6
AA
AA
92
92
82
82
82
C6
00
00
00
00
ENDCHAR
STARTCHAR char78
ENCODING 78
SWIDTH 500 0
DWIDTH 8 0
BBX 8 16 0 -4
BITMAP
00
00
C6
42
62
52
52
4A
4A
46
42
E6
00
00
00
00
ENDCHAR
STARTCHAR char79
ENCODING 79
SWIDTH 500 0
DWIDTH 8 0
BBX 8 16 0 -4
BITMAP
00
00
38
44
82
82
82
82
82
82
44
38
00
00
00
00
ENDCHAR
STARTCHAR char80
ENCODING 80
SWIDTH 500 0
DWIDTH 8 0
BBX 8 16 0 -4
BITMAP
00
00
FC
42
42
42
42
7C
40
40
40
E0
00
00
00
00
ENDCHAR
STARTCHAR char81
ENCODING 81
SWIDTH 500 0
DWIDTH 8 0
BBX 8 16 0 -4
BITMAP
00
00
38
44
82
82
82
82
82
92
4C
38
04
00
00
00
ENDCHAR
STARTCHAR char82
ENCODING 82
SWIDTH 500 0
DWIDTH 8 0
BBX 8 16 0 -4
BITMAP
00
00
FC
42
42
42
42
7C
48
44
42
E6
00
00
00
00
ENDCHAR
STARTCHAR char83
ENCODING 83
SWIDTH 500 0
DWIDTH 8 0
BBX 8 16 0 -4
BITMAP
00
00
3C
42
40
40
3C
02
02
02
42
3C
00
00
00
00
ENDCHAR
STARTCHAR char84
ENCODING 84
SWIDTH 500 0
DWIDTH 8 0
BBX 8 16 0 -4
BITMAP
00
00
FE
92
92
10
10
10
10
10
10
38
00
00
00
00
ENDCHAR
STARTCHAR char85
ENCODING 85
SWIDTH 500 0
DWIDTH 8 0
BBX 8 16 0 -4
BITMAP
00
00
E6
42
42
42
42
42
42
42
42
3C
00
00
00
00
ENDCHAR
STARTCHAR char86
ENCODING 86
SWIDTH 500 0
DWIDTH 8 0
BBX 8 16 0 -4
BITMAP
00
00
C6
82
82
44
44
44
28
28
10
10
00
00
00
00
ENDCHAR
STARTCHAR char87
ENCODING 87
SWIDTH 500 0
DWIDTH 8 0
BBX 8 16 0 -4
BITMAP
00
00
C6
82
82
92
92
92
54
54
6C
44
00
00
00
00
ENDCHAR
STARTCHAR char88
ENCODING 88
SWIDTH 500 0
DWIDTH 8 0
BBX 8 16 0 -4
BITMAP
00
00
C6
82
44
28
10
10
28
44
82
C6
00
00
00
00
ENDCHAR
STARTCHAR char89
ENCODING 89
SWIDTH 500 0
DWIDTH 8 0
BBX 8 16 0 -4
BITMAP
00
00
C6
82
44
44
28
28
10
10
10
38
00
00
00
00
ENDCHAR
STARTCHAR char90
ENCODING 90
SWIDTH 500 0
DWIDTH 8 0
BBX 8 16 0 -4
BITMAP
00
00
7E
42
04
04
08
10
20
20
42
7E
00
00
00
00
ENDCHAR
STARTCHAR char91
ENCODING 91
SWIDTH 500 0
DWIDTH 8 0
BBX 8 16 0 -4
BITMAP
00
3C
20
20
20
20
20
20
20
20
20
3C
00
00
00
00
ENDCHAR
STARTCHAR char92
ENCODING 92
SWIDTH 500 0
DWIDTH 8 0
BBX 8 16 0 -4
BITMAP
00
40
40
20
20
10
10
10
08
08
04
04
00
00
00
00
ENDCHAR
STARTCHAR char93
ENCODING 93
SWIDTH 500 0
DWIDTH 8 0
BBX 8 16 0 -4
BITMAP
00
78
08
08
08
08
08
08
08
08
08
78
00
00
00
00
ENDCHAR
STARTCHAR char94
ENCODING 94
SWIDTH 500 0
DWIDTH 8 0
BBX 8 16 0 -4
BITMAP
00
10
28
44
82
00
00
00
00
00
00
00
00
00
00
00
ENDCHAR
STARTCHAR char95
ENCODING 95
SWIDTH 500 0
DWIDTH 8 0
BBX 8 16 0 -4
BITMAP
00
00
00
00
00
00
00
00
00
00
00
00
00
FF
00
00
ENDCHAR
STARTCHAR char96
ENCODING 96
SWIDTH 500 0
DWIDTH 8 0
BBX 8 16 0 -4
BITMAP
00
20
20
10
10
00
00
00
00
00
00
00
00
00
00
00
ENDCHAR
STARTCHAR char97
ENCODING 97
SWIDTH 500 0
DWIDTH 8 0
BBX 8 16 0 -4
BITMAP
00
00
00
00
00
78
84
04
7C
84
8C
76
00
00
00
00
ENDCHAR
STARTCHAR char98
ENCODING 98
SWIDTH 500 0
DWIDTH 8 0
BBX 8 16 0 -4
BITMAP
00
00
C0
40
40
5C
62
42
42
42
62
DC
00
00
00
00
ENDCHAR
STARTCHAR char99
ENCODING 99
SWIDTH 500 0
DWIDTH 8 0
BBX 8 16 0 -4
BITMAP
00
00
00
00
00
3E
42
40
40
40
42
3C
00
00
00
00
ENDCHAR
STARTCHAR char100
ENCODING 100
SWIDTH 500 0
DWIDTH 8 0
BBX 8 16 0 -4
BITMAP
00
00
0C
04
04
74
8C
84
84
84
8C
76
00
00
00
00
ENDCHAR
STARTCHAR char101
ENCODING 101
SWIDTH 500 0
DWIDTH 8 0
BBX 8 16 0 -4
BITMAP
00
00
00
00
00
3C
42
42
7E
40
42
3C
00
00
00
00
ENDCHAR
STARTCHAR char102
ENCODING 102
SWIDTH 500 0
DWIDTH 8 0
BBX 8 16 0 -4
BITMAP
00
0C
10
10
10
7C
10
10
10
10
10
7C
00
00
00
00
ENDCHAR
STARTCHAR char103
ENCODING 103
SWIDTH 500 0
DWIDTH 8 0
BBX 8 16 0 -4
BITMAP
00
00
00
00
00
76
8C
84
84
8C
74
04
84
78
00
00
ENDCHAR
STARTCHAR char104
ENCODING 104
SWIDTH 500 0
DWIDTH 8 0
BBX 8 16 0 -4
BITMAP
00
00
C0
40
40
5C
62
42
42
42
42
E2
00
00
00
00
ENDCHAR
STARTCHAR char105
ENCODING 105
SWIDTH 500 0
DWIDTH 8 0
BBX 8 16 0 -4
BITMAP
00
00
18
00
00
38
08
08
08
08
08
3C
00
00
00
00
ENDCHAR
STARTCHAR char106
ENCODING 106
SWIDTH 500 0
DWIDTH 8 0
BBX 8 16 0 -4
BITMAP
00
00
0C
00
00
1C
04
04
04
04
04
44
44
38
00
00
ENDCHAR
STARTCHAR char107
ENCODING 107
SWIDTH 500 0
DWIDTH 8 0
BBX 8 16 0 -4
BITMAP
00
00
C0
40
40
46
48
50
68
44
42
C6
00
00
00
00
ENDCHAR
STARTCHAR char108
ENCODING 108
SWIDTH 500 0
DWIDTH 8 0
BBX 8 16 0 -4
BITMAP
00
00
38
08
08
08
08
08
08
08
08
3C
00
00
00
00
ENDCHAR
STARTCHAR char109
ENCODING 109
SWIDTH 500 0
DWIDTH 8 0
BBX 8 16 0 -4
BITMAP
00
00
00
00
00
EC
92
92
92
92
92
D6
00
00
00
00
ENDCHAR
STARTCHAR char110
ENCODING 110
SWIDTH 500 0
DWIDTH 8 0
BBX 8 16 0 -4
BITMAP
00
00
00
00
00
DC
62
42
42
42
42
E6
00
00
00
00
ENDCHAR
STARTCHAR char111
ENCODING 111
SWIDTH 500 0
DWIDTH 8 0
BBX 8 16 0 -4
BITMAP
00
00
00
00
00
38
44
82
82
82
44
38
00
00
00
00
ENDCHAR
STARTCHAR char112
ENCODING 112
SWIDTH 500 0
DWIDTH 8 0
BBX 8 16 0 -4
BITMAP
00
00
00
00
00
DC
62
42
42
42
62
5C
40
E0
00
00
ENDCHAR
STARTCHAR char113
ENCODING 113
SWIDTH 500 0
DWIDTH 8 0
BBX 8 16 0 -4
BITMAP
00
00
00
00
00
76
8C
84
84
84
8C
74
04
0E
00
00
ENDCHAR
STARTCHAR char114
ENCODING 114
SWIDTH 500 0
DWIDTH 8 0
BBX 8 16 0 -4
BITMAP
00
00
00
00
00
DE
62
40
40
40
40
E0
00
00
00
00
ENDCHAR
STARTCHAR char115
ENCODING 115
SWIDTH 500 0
DWIDTH 8 0
BBX 8 16 0 -4
BITMAP
00
00
00
00
00
3C
42
40
3C
02
42
3C
00
00
00
00
ENDCHAR
STARTCHAR char116
ENCODING 116
SWIDTH 500 0
DWIDTH 8 0
BBX 8 16 0 -4
BITMAP
00
00
20
20
20
78
20
20
20
20
20
1C
00
00
00
00
ENDCHAR
STARTCHAR char117
ENCODING 117
SWIDTH 500 0
DWIDTH 8 0
BBX 8 16 0 -4
BITMAP
00
00
00
00
00
EE
44
44
44
44
44
38
00
00
00
00
ENDCHAR
STARTCHAR char118
ENCODING 118
SWIDTH 500 0
DWIDTH 8 0
BBX 8 16 0 -4
BITMAP
00
00
00
00
00
C6
82
44
44
28
28
10
00
00
00
00
ENDCHAR
STARTCHAR char119
ENCODING 119
SWIDTH 500 0
DWIDTH 8 0
BBX 8 16 0 -4
BITMAP
00
00
00
00
00
C6
82
92
92
54
7C
44
00
00
00
00
ENDCHAR
STARTCHAR char120
ENCODING 120
SWIDTH 500 0
DWIDTH 8 0
BBX 8 16 0 -4
BITMAP
00
00
00
00
00
EE
44
28
10
28
44
EE
00
00
00
00
ENDCHAR
STARTCHAR char121
ENCODING 121
SWIDTH 500 0
DWIDTH 8 0
BBX 8 16 0 -4
BITMAP
00
00
00
00
00
C6
44
44
28
28
10
10
20
C0
00
00
ENDCHAR
STARTCHAR char122
ENCODING 122
SWIDTH 500 0
DWIDTH 8 0
BBX 8 16 0 -4
BITMAP
00
00
00
00
00
FE
84
08
10
20
42
FE
00
00
00
00
ENDCHAR
STARTCHAR char123
ENCODING 123
SWIDTH 500 0
DWIDTH 8 0
BBX 8 16 0 -4
BITMAP
00
0C
10
10
10
10
60
10
10
10
10
0C
00
00
00
00
ENDCHAR
STARTCHAR char124
ENCODING 124
SWIDTH 500 0
DWIDTH 8 0
BBX 8 16 0 -4
BITMAP
00
00
10
10
10
10
00
00
10
10
10
10
00
00
00
00
ENDCHAR
STARTCHAR char125
ENCODING 125
SWIDTH 500 0
DWIDTH 8 0
BBX 8 16 0 -4
BITMAP
00
60
10
10
10
10
0C
10
10
10
10
60
00
00
00
00
ENDCHAR
STARTCHAR char126
ENCODING 126
SWIDTH 500 0
DWIDTH 8 0
BBX 8 16 0 -4
BITMAP
00
60
92
92
0C
00
00
00
00
00
00
00
00
00
00
00
ENDCHAR
STARTCHAR char127
ENCODING 127
SWIDTH 500 0
DWIDTH 8 0
BBX 8 16 0 -4
BITMAP
00
00
00
00
10
10
28
28
44
44
82
FE
00
00
00
00
ENDCHAR
STARTCHAR char128
ENCODING 128
SWIDTH 500 0
DWIDTH 8 0
BBX 8 16 0 -4
BITMAP
00
00
1C
24
44
44
44
44
7C
44
44
EE
00
00
00
00
ENDCHAR
STARTCHAR char129
ENCODING 129
SWIDTH 500 0
DWIDTH 8 0
BBX 8 16 0 -4
BITMAP
00
00
FE
42
40
7C
42
42
42
42
42
FC
00
00
00
00
ENDCHAR
STARTCHAR char130
ENCODING 130
SWIDTH 500 0
DWIDTH 8 0
BBX 8 16 0 -4
BITMAP
00
00
FC
42
42
44
78
44
42
42
42
FC
00
00
00
00
ENDCHAR
STARTCHAR char131
ENCODING 131
SWIDTH 500 0
DWIDTH 8 0
BBX 8 16 0 -4
BITMAP
00
00
FE
42
40
40
40
40
40
40
40
F0
00
00
00
00
ENDCHAR
STARTCHAR char132
ENCODING 132
SWIDTH 500 0
DWIDTH 8 0
BBX 8 16 0 -4
BITMAP
00
00
3E
14
14
24
24
24
44
44
44
FE
82
00
00
00
ENDCHAR
STARTCHAR char133
ENCODING 133
SWIDTH 500 0
DWIDTH 8 0
BBX 8 16 0 -4
BITMAP
00
00
FE
42
40
44
7C
44
40
40
42
FE
00
00
00
00
ENDCHAR
STARTCHAR char134
ENCODING 134
SWIDTH 500 0
DWIDTH 8 0
BBX 8 16 0 -4
BITMAP
00
00
D6
54
54
38
10
38
54
54
54
D6
00
00
00
00
ENDCHAR
STARTCHAR char135
ENCODING 135
SWIDTH 500 0
DWIDTH 8 0
BBX 8 16 0 -4
BITMAP
00
00
3C
42
02
04
18
04
02
82
82
7C
00
00
00
00
ENDCHAR
STARTCHAR char136
ENCODING 136
SWIDTH 500 0
DWIDTH 8 0
BBX 8 16 0 -4
BITMAP
00
00
E7
42
46
4A
4A
52
52
62
42
E7
00
00
00
00
ENDCHAR
STARTCHAR char137
ENCODING 137
SWIDTH 500 0
DWIDTH 8 0
BBX 8 16 0 -4
BITMAP
38
00
E7
42
46
4A
4A
52
52
62
42
E7
00
00
00
00
ENDCHAR
STARTCHAR char138
ENCODING 138
SWIDTH 500 0
DWIDTH 8 0
BBX 8 16 0 -4
BITMAP
00
00
CE
84
88
90
A0
D0
88
88
84
CE
00
00
00
00
ENDCHAR
STARTCHAR char139
ENCODING 139
SWIDTH 500 0
DWIDTH 8 0
BBX 8 16 0 -4
BITMAP
00
00
3E
14
14
14
24
24
24
44
44
CE
00
00
00
00
ENDCHAR
STARTCHAR char140
ENCODING 140
SWIDTH 500 0
DWIDTH 8 0
BBX 8 16 0 -4
BITMAP
00
00
C6
C6
AA
AA
92
92
82
82
82
C6
00
00
00
00
ENDCHAR
STARTCHAR char141
ENCODING 141
SWIDTH 500 0
DWIDTH 8 0
BBX 8 16 0 -4
BITMAP
00
00
E6
42
42
42
7E
42
42
42
42
E6
00
00
00
00
ENDCHAR
STARTCHAR char142
ENCODING 142
SWIDTH 500 0
DWIDTH 8 0
BBX 8 16 0 -4
BITMAP
00
00
3C
42
42
42
42
42
42
42
42
3C
00
00
00
00
ENDCHAR
STARTCHAR char143
ENCODING 143
SWIDTH 500 0
DWIDTH 8 0
BBX 8 16 0 -4
BITMAP
00
00
FE
44
44
44
44
44
44
44
44
EE
00
00
00
00
ENDCHAR
STARTCHAR char144
ENCODING 144
SWIDTH 500 0
DWIDTH 8 0
BBX 8 16 0 -4
BITMAP
00
00
FC
42
42
42
42
7C
40
40
40
E0
00
00
00
00
ENDCHAR
STARTCHAR char145
ENCODING 145
SWIDTH 500 0
DWIDTH 8 0
BBX 8 16 0 -4
BITMAP
00
00
3C
42
42
40
40
40
40
42
42
3C
00
00
00
00
ENDCHAR
STARTCHAR char146
ENCODING 146
SWIDTH 500 0
DWIDTH 8 0
BBX 8 16 0 -4
BITMAP
00
00
FE
92
92
10
10
10
10
10
10
38
00
00
00
00
ENDCHAR
STARTCHAR char147
ENCODING 147
SWIDTH 500 0
DWIDTH 8 0
BBX 8 16 0 -4
BITMAP
00
00
EE
44
44
44
44
44
3C
04
04
78
00
00
00
00
ENDCHAR
STARTCHAR char148
ENCODING 148
SWIDTH 500 0
DWIDTH 8 0
BBX 8 16 0 -4
BITMAP
28
10
7C
92
92
92
92
92
92
92
92
7C
10
28
00
00
ENDCHAR
STARTCHAR char149
ENCODING 149
SWIDTH 500 0
DWIDTH 8 0
BBX 8 16 0 -4
BITMAP
00
00
C6
82
44
28
10
28
44
44
82
C6
00
00
00
00
ENDCHAR
STARTCHAR char150
ENCODING 150
SWIDTH 500 0
DWIDTH 8 0
BBX 8 16 0 -4
BITMAP
00
00
EE
44
44
44
44
44
44
44
44
FE
02
02
00
00
ENDCHAR
STARTCHAR char151
ENCODING 151
SWIDTH 500 0
DWIDTH 8 0
BBX 8 16 0 -4
BITMAP
00
00
EE
44
44
44
44
44
3C
04
04
0E
00
00
00
00
ENDCHAR
STARTCHAR char152
ENCODING 152
SWIDTH 500 0
DWIDTH 8 0
BBX 8 16 0 -4
BITMAP
00
00
EE
44
44
44
54
54
54
54
54
FE
00
00
00
00
ENDCHAR
STARTCHAR char153
ENCODING 153
SWIDTH 500 0
DWIDTH 8 0
BBX 8 16 0 -4
BITMAP
00
00
EE
44
44
44
54
54
54
54
54
FE
02
02
00
00
ENDCHAR
STARTCHAR char154
ENCODING 154
SWIDTH 500 0
DWIDTH 8 0
BBX 8 16 0 -4
BITMAP
00
00
F0
A0
A0
20
3C
22
22
22
22
7C
00
00
00
00
ENDCHAR
STARTCHAR char155
ENCODING 155
SWIDTH 500 0
DWIDTH 8 0
BBX 8 16 0 -4
BITMAP
00
00
E6
42
42
42
72
4A
4A
4A
4A
F6
00
00
00
00
ENDCHAR
STARTCHAR char156
ENCODING 156
SWIDTH 500 0
DWIDTH 8 0
BBX 8 16 0 -4
BITMAP
00
00
E0
40
40
40
7C
42
42
42
42
FC
00
00
00
00
ENDCHAR
STARTCHAR char157
ENCODING 157
SWIDTH 500 0
DWIDTH 8 0
BBX 8 16 0 -4
BITMAP
00
00
38
44
82
12
1E
12
02
82
44
38
00
00
00
00
ENDCHAR
STARTCHAR char158
ENCODING 158
SWIDTH 500 0
DWIDTH 8 0
BBX 8 16 0 -4
BITMAP
00
00
CC
52
52
52
72
52
52
52
52
CC
00
00
00
00
ENDCHAR
STARTCHAR char159
ENCODING 159
SWIDTH 500 0
DWIDTH 8 0
BBX 8 16 0 -4
BITMAP
00
00
7E
84
84
84
84
7C
14
24
44
EE
00
00
00
00
ENDCHAR
STARTCHAR char160
ENCODING 160
SWIDTH 500 0
DWIDTH 8 0
BBX 8 16 0 -4
BITMAP
00
00
00
00
00
78
84
04
7C
84
84
7E
00
00
00
00
ENDCHAR
STARTCHAR char161
ENCODING 161
SWIDTH 500 0
DWIDTH 8 0
BBX 8 16 0 -4
BITMAP
00
00
02
3C
40
5C
62
42
42
42
42
3C
00
00
00
00
ENDCHAR
STARTCHAR char162
ENCODING 162
SWIDTH 500 0
DWIDTH 8 0
BBX 8 16 0 -4
BITMAP
00
00
00
00
00
FC
42
42
7C
42
42
FC
00
00
00
00
ENDCHAR
STARTCHAR char163
ENCODING 163
SWIDTH 500 0
DWIDTH 8 0
BBX 8 16 0 -4
BITMAP
00
00
00
00
00
FE
42
40
40
40
40
E0
00
00
00
00
ENDCHAR
STARTCHAR char164
ENCODING 164
SWIDTH 500 0
DWIDTH 8 0
BBX 8 16 0 -4
BITMAP
00
00
00
00
00
7E
24
24
24
44
44
FE
82
00
00
00
ENDCHAR
STARTCHAR char165
ENCODING 165
SWIDTH 500 0
DWIDTH 8 0
BBX 8 16 0 -4
BITMAP
00
00
00
00
00
3C
42
42
7E
40
42
3C
00
00
00
00
ENDCHAR
STARTCHAR char166
ENCODING 166
SWIDTH 500 0
DWIDTH 8 0
BBX 8 16 0 -4
BITMAP
00
00
00
00
00
D6
54
38
10
38
54
D6
00
00
00
00
ENDCHAR
STARTCHAR char167
ENCODING 167
SWIDTH 500 0
DWIDTH 8 0
BBX 8 16 0 -4
BITMAP
00
00
00
00
00
3C
42
02
1C
02
42
3C
00
00
00
00
ENDCHAR
STARTCHAR char168
ENCODING 168
SWIDTH 500 0
DWIDTH 8 0
BBX 8 16 0 -4
BITMAP
00
00
00
00
00
EE
44
4C
54
64
44
EE
00
00
00
00
ENDCHAR
STARTCHAR char169
ENCODING 169
SWIDTH 500 0
DWIDTH 8 0
BBX 8 16 0 -4
BITMAP
00
00
28
38
00
EE
44
4C
54
64
44
EE
00
00
00
00
ENDCHAR
STARTCHAR char170
ENCODING 170
SWIDTH 500 0
DWIDTH 8 0
BBX 8 16 0 -4
BITMAP
00
00
00
00
00
E6
44
48
50
68
44
EE
00
00
00
00
ENDCHAR
STARTCHAR char171
ENCODING 171
SWIDTH 500 0
DWIDTH 8 0
BBX 8 16 0 -4
BITMAP
00
00
00
00
00
7E
24
24
24
24
44
CE
00
00
00
00
ENDCHAR
STARTCHAR char172
ENCODING 172
SWIDTH 500 0
DWIDTH 8 0
BBX 8 16 0 -4
BITMAP
00
00
00
00
00
C6
C6
AA
92
82
82
C6
00
00
00
00
ENDCHAR
STARTCHAR char173
ENCODING 173
SWIDTH 500 0
DWIDTH 8 0
BBX 8 16 0 -4
BITMAP
00
00
00
00
00
EE
44
44
7C
44
44
EE
00
00
00
00
ENDCHAR
STARTCHAR char174
ENCODING 174
SWIDTH 500 0
DWIDTH 8 0
BBX 8 16 0 -4
BITMAP
00
00
00
00
00
3C
42
42
42
42
42
3C
00
00
00
00
ENDCHAR
STARTCHAR char175
ENCODING 175
SWIDTH 500 0
DWIDTH 8 0
BBX 8 16 0 -4
BITMAP
00
00
00
00
00
FE
44
44
44
44
44
EE
00
00
00
00
ENDCHAR
STARTCHAR char176
ENCODING 176
SWIDTH 500 0
DWIDTH 8 0
BBX 8 16 0 -4
BITMAP
88
22
22
88
88
22
22
88
88
22
22
88
88
22
22
88
ENDCHAR
STARTCHAR char177
ENCODING 177
SWIDTH 500 0
DWIDTH 8 0
BBX 8 16 0 -4
BITMAP
AA
55
55
AA
AA
55
55
AA
AA
55
55
AA
AA
55
55
AA
ENDCHAR
STARTCHAR char178
ENCODING 178
SWIDTH 500 0
DWIDTH 8 0
BBX 8 16 0 -4
BITMAP
77
DB
DB
77
77
DB
DB
EE
EE
DB
DB
77
77
DB
DB
EE
ENDCHAR
STARTCHAR char179
ENCODING 179
SWIDTH 500 0
DWIDTH 8 0
BBX 8 16 0 -4
BITMAP
10
10
10
10
10
10
10
10
10
10
10
10
10
10
10
10
ENDCHAR
STARTCHAR char180
ENCODING 180
SWIDTH 500 0
DWIDTH 8 0
BBX 8 16 0 -4
BITMAP
10
10
10
10
10
10
10
30
60
C0
60
30
10
10
10
10
ENDCHAR
STARTCHAR char181
ENCODING 181
SWIDTH 500 0
DWIDTH 8 0
BBX 8 16 0 -4
BITMAP
10
10
10
10
10
30
E0
C0
C0
E0
30
10
10
10
10
10
ENDCHAR
STARTCHAR char182
ENCODING 182
SWIDTH 500 0
DWIDTH 8 0
BBX 8 16 0 -4
BITMAP
1C
1C
1C
1C
1C
1C
1C
18
30
E0
30
18
1C
1C
1C
1C
ENDCHAR
STARTCHAR char183
ENCODING 183
SWIDTH 500 0
DWIDTH 8 0
BBX 8 16 0 -4
BITMAP
00
00
00
00
00
00
00
00
00
F0
38
1C
1C
1C
1C
1C
ENDCHAR
STARTCHAR char184
ENCODING 184
SWIDTH 500 0
DWIDTH 8 0
BBX 8 16 0 -4
BITMAP
00
00
00
00
00
00
80
C0
E0
F0
30
10
10
10
10
10
ENDCHAR
STARTCHAR char185
ENCODING 185
SWIDTH 500 0
DWIDTH 8 0
BBX 8 16 0 -4
BITMAP
1C
1C
1C
1C
1C
38
F0
E0
E0
F0
38
1C
1C
1C
1C
1C
ENDCHAR
STARTCHAR char186
ENCODING 186
SWIDTH 500 0
DWIDTH 8 0
BBX 8 16 0 -4
BITMAP
1C
1C
1C
1C
1C
1C
1C
1C
1C
1C
1C
1C
1C
1C
1C
1C
ENDCHAR
STARTCHAR char187
ENCODING 187
SWIDTH 500 0
DWIDTH 8 0
BBX 8 16 0 -4
BITMAP
00
00
00
00
00
00
C0
E0
F0
F8
3C
1C
1C
1C
1C
1C
ENDCHAR
STARTCHAR char188
ENCODING 188
SWIDTH 500 0
DWIDTH 8 0
BBX 8 16 0 -4
BITMAP
1C
1C
1C
1C
1C
3C
F8
F0
E0
C0
00
00
00
00
00
00
ENDCHAR
STARTCHAR char189
ENCODING 189
SWIDTH 500 0
DWIDTH 8 0
BBX 8 16 0 -4
BITMAP
1C
1C
1C
1C
1C
1C
1C
1C
38
F0
00
00
00
00
00
00
ENDCHAR
STARTCHAR char190
ENCODING 190
SWIDTH 500 0
DWIDTH 8 0
BBX 8 16 0 -4
BITMAP
10
10
10
10
10
30
F0
E0
C0
80
00
00
00
00
00
00
ENDCHAR
STARTCHAR char191
ENCODING 191
SWIDTH 500 0
DWIDTH 8 0
BBX 8 16 0 -4
BITMAP
00
00
00
00
00
00
00
00
00
C0
60
30
10
10
10
10
ENDCHAR
STARTCHAR char192
ENCODING 192
SWIDTH 500 0
DWIDTH 8 0
BBX 8 16 0 -4
BITMAP
10
10
10
10
10
10
10
18
0C
07
00
00
00
00
00
00
ENDCHAR
STARTCHAR char193
ENCODING 193
SWIDTH 500 0
DWIDTH 8 0
BBX 8 16 0 -4
BITMAP
10
10
10
10
10
10
10
38
6C
C7
00
00
00
00
00
00
ENDCHAR
STARTCHAR char194
ENCODING 194
SWIDTH 500 0
DWIDTH 8 0
BBX 8 16 0 -4
BITMAP
00
00
00
00
00
00
00
00
00
C7
6C
38
10
10
10
10
ENDCHAR
STARTCHAR char195
ENCODING 195
SWIDTH 500 0
DWIDTH 8 0
BBX 8 16 0 -4
BITMAP
10
10
10
10
10
10
10
18
0C
07
0C
18
10
10
10
10
ENDCHAR
STARTCHAR char196
ENCODING 196
SWIDTH 500 0
DWIDTH 8 0
BBX 8 16 0 -4
BITMAP
00
00
00
00
00
00
00
00
00
FF
00
00
00
00
00
00
ENDCHAR
STARTCHAR char197
ENCODING 197
SWIDTH 500 0
DWIDTH 8 0
BBX 8 16 0 -4
BITMAP
10
10
10
10
10
10
10
38
6C
C7
6C
38
10
10
10
10
ENDCHAR
STARTCHAR char198
ENCODING 198
SWIDTH 500 0
DWIDTH 8 0
BBX 8 16 0 -4
BITMAP
10
10
10
10
10
18
0F
07
07
0F
18
10
10
10
10
10
ENDCHAR
STARTCHAR char199
ENCODING 199
SWIDTH 500 0
DWIDTH 8 0
BBX 8 16 0 -4
BITMAP
1C
1C
1C
1C
1C
1C
1C
0C
06
03
06
0C
1C
1C
1C
1C
ENDCHAR
STARTCHAR char200
ENCODING 200
SWIDTH 500 0
DWIDTH 8 0
BBX 8 16 0 -4
BITMAP
1C
1C
1C
1C
1C
1E
0F
07
03
01
00
00
00
00
00
00
ENDCHAR
STARTCHAR char201
ENCODING 201
SWIDTH 500 0
DWIDTH 8 0
BBX 8 16 0 -4
BITMAP
00
00
00
00
00
00
01
03
07
0F
1E
1C
1C
1C
1C
1C
ENDCHAR
STARTCHAR char202
ENCODING 202
SWIDTH 500 0
DWIDTH 8 0
BBX 8 16 0 -4
BITMAP
1C
1C
1C
1C
1C
3E
FF
F7
E3
C1
00
00
00
00
00
00
ENDCHAR
STARTCHAR char203
ENCODING 203
SWIDTH 500 0
DWIDTH 8 0
BBX 8 16 0 -4
BITMAP
00
00
00
00
00
00
C1
E3
F7
FF
3E
1C
1C
1C
1C
1C
ENDCHAR
STARTCHAR char204
ENCODING 204
SWIDTH 500 0
DWIDTH 8 0
BBX 8 16 0 -4
BITMAP
1C
1C
1C
1C
1C
0E
07
03
03
07
0E
1C
1C
1C
1C
1C
ENDCHAR
STARTCHAR char205
ENCODING 205
SWIDTH 500 0
DWIDTH 8 0
BBX 8 16 0 -4
BITMAP
00
00
00
00
00
00
FF
FF
FF
FF
00
00
00
00
00
00
ENDCHAR
STARTCHAR char206
ENCODING 206
SWIDTH 500 0
DWIDTH 8 0
BBX 8 16 0 -4
BITMAP
1C
1C
1C
1C
1C
36
E3
C1
C1
E3
36
1C
1C
1C
1C
1C
ENDCHAR
STARTCHAR char207
ENCODING 207
SWIDTH 500 0
DWIDTH 8 0
BBX 8 16 0 -4
BITMAP
10
10
10
10
38
7C
FF
EF
C7
83
00
00
00
00
00
00
ENDCHAR
STARTCHAR char208
ENCODING 208
SWIDTH 500 0
DWIDTH 8 0
BBX 8 16 0 -4
BITMAP
1C
1C
1C
1C
1C
1C
1C
1C
36
E3
00
00
00
00
00
00
ENDCHAR
STARTCHAR char209
ENCODING 209
SWIDTH 500 0
DWIDTH 8 0
BBX 8 16 0 -4
BITMAP
00
00
00
00
00
00
83
C7
EF
FF
38
10
10
10
10
10
ENDCHAR
STARTCHAR char210
ENCODING 210
SWIDTH 500 0
DWIDTH 8 0
BBX 8 16 0 -4
BITMAP
00
00
00
00
00
00
00
00
00
E3
36
1C
1C
1C
1C
1C
ENDCHAR
STARTCHAR char211
ENCODING 211
SWIDTH 500 0
DWIDTH 8 0
BBX 8 16 0 -4
BITMAP
1C
1C
1C
1C
1C
1C
1C
0C
06
03
00
00
00
00
00
00
ENDCHAR
STARTCHAR char212
ENCODING 212
SWIDTH 500 0
DWIDTH 8 0
BBX 8 16 0 -4
BITMAP
10
10
10
10
10
18
1F
0F
07
03
00
00
00
00
00
00
ENDCHAR
STARTCHAR char213
ENCODING 213
SWIDTH 500 0
DWIDTH 8 0
BBX 8 16 0 -4
BITMAP
00
00
00
00
00
00
03
07
0F
1F
18
10
10
10
10
10
ENDCHAR
STARTCHAR char214
ENCODING 214
SWIDTH 500 0
DWIDTH 8 0
BBX 8 16 0 -4
BITMAP
00
00
00
00
00
00
00
00
00
07
0E
1C
1C
1C
1C
1C
ENDCHAR
STARTCHAR char215
ENCODING 215
SWIDTH 500 0
DWIDTH 8 0
BBX 8 16 0 -4
BITMAP
1C
1C
1C
1C
1C
1C
1C
1C
36
E3
36
1C
1C
1C
1C
1C
ENDCHAR
STARTCHAR char216
ENCODING 216
SWIDTH 500 0
DWIDTH 8 0
BBX 8 16 0 -4
BITMAP
10
10
10
10
10
38
EF
C7
C7
EF
38
10
10
10
10
10
ENDCHAR
STARTCHAR char217
ENCODING 217
SWIDTH 500 0
DWIDTH 8 0
BBX 8 16 0 -4
BITMAP
10
10
10
10
10
10
10
30
60
C0
00
00
00
00
00
00
ENDCHAR
STARTCHAR char218
ENCODING 218
SWIDTH 500 0
DWIDTH 8 0
BBX 8 16 0 -4
BITMAP
00
00
00
00
00
00
00
00
00
07
0C
18
10
10
10
10
ENDCHAR
STARTCHAR char219
ENCODING 219
SWIDTH 500 0
DWIDTH 8 0
BBX 8 16 0 -4
BITMAP
FF
FF
FF
FF
FF
FF
FF
FF
FF
FF
FF
FF
FF
FF
FF
FF
ENDCHAR
STARTCHAR char220
ENCODING 220
SWIDTH 500 0
DWIDTH 8 0
BBX 8 16 0 -4
BITMAP
00
00
00
00
00
00
00
00
00
FF
FF
FF
FF
FF
FF
FF
ENDCHAR
STARTCHAR char221
ENCODING 221
SWIDTH 500 0
DWIDTH 8 0
BBX 8 16 0 -4
BITMAP
F0
F0
F0
F0
F0
F0
F0
F0
F0
F0
F0
F0
F0
F0
F0
F0
ENDCHAR
STARTCHAR char222
ENCODING 222
SWIDTH 500 0
DWIDTH 8 0
BBX 8 16 0 -4
BITMAP
0F
0F
0F
0F
0F
0F
0F
0F
0F
0F
0F
0F
0F
0F
0F
0F
ENDCHAR
STARTCHAR char223
ENCODING 223
SWIDTH 500 0
DWIDTH 8 0
BBX 8 16 0 -4
BITMAP
FF
FF
FF
FF
FF
FF
FF
FF
FF
00
00
00
00
00
00
00
ENDCHAR
STARTCHAR char224
ENCODING 224
SWIDTH 500 0
DWIDTH 8 0
BBX 8 16 0 -4
BITMAP
00
00
00
00
00
DC
62
42
42
42
42
7C
40
40
E0
00
ENDCHAR
STARTCHAR char225
ENCODING 225
SWIDTH 500 0
DWIDTH 8 0
BBX 8 16 0 -4
BITMAP
00
00
00
00
00
3C
42
40
40
40
42
3C
00
00
00
00
ENDCHAR
STARTCHAR char226
ENCODING 226
SWIDTH 500 0
DWIDTH 8 0
BBX 8 16 0 -4
BITMAP
00
00
00
00
00
FE
92
10
10
10
10
38
00
00
00
00
ENDCHAR
STARTCHAR char227
ENCODING 227
SWIDTH 500 0
DWIDTH 8 0
BBX 8 16 0 -4
BITMAP
00
00
00
00
00
C6
44
44
28
28
10
10
10
20
C0
00
ENDCHAR
STARTCHAR char228
ENCODING 228
SWIDTH 500 0
DWIDTH 8 0
BBX 8 16 0 -4
BITMAP
00
00
00
28
10
7C
92
92
92
92
92
7C
10
10
38
00
ENDCHAR
STARTCHAR char229
ENCODING 229
SWIDTH 500 0
DWIDTH 8 0
BBX 8 16 0 -4
BITMAP
00
00
00
00
00
EE
44
28
10
28
44
EE
00
00
00
00
ENDCHAR
STARTCHAR char230
ENCODING 230
SWIDTH 500 0
DWIDTH 8 0
BBX 8 16 0 -4
BITMAP
00
00
00
00
00
EE
44
44
44
44
44
FE
02
00
00
00
ENDCHAR
STARTCHAR char231
ENCODING 231
SWIDTH 500 0
DWIDTH 8 0
BBX 8 16 0 -4
BITMAP
00
00
00
00
00
EE
44
44
44
3C
04
0E
00
00
00
00
ENDCHAR
STARTCHAR char232
ENCODING 232
SWIDTH 500 0
DWIDTH 8 0
BBX 8 16 0 -4
BITMAP
00
00
00
00
00
EE
44
44
54
54
54
FE
00
00
00
00
ENDCHAR
STARTCHAR char233
ENCODING 233
SWIDTH 500 0
DWIDTH 8 0
BBX 8 16 0 -4
BITMAP
00
00
00
00
00
EE
44
44
54
54
54
FE
02
00
00
00
ENDCHAR
STARTCHAR char234
ENCODING 234
SWIDTH 500 0
DWIDTH 8 0
BBX 8 16 0 -4
BITMAP
00
00
00
00
00
F0
A0
BC
22
22
22
7C
00
00
00
00
ENDCHAR
STARTCHAR char235
ENCODING 235
SWIDTH 500 0
DWIDTH 8 0
BBX 8 16 0 -4
BITMAP
00
00
00
00
00
E6
42
72
4A
4A
4A
F6
00
00
00
00
ENDCHAR
STARTCHAR char236
ENCODING 236
SWIDTH 500 0
DWIDTH 8 0
BBX 8 16 0 -4
BITMAP
00
00
00
00
00
70
20
3C
22
22
22
7C
00
00
00
00
ENDCHAR
STARTCHAR char237
ENCODING 237
SWIDTH 500 0
DWIDTH 8 0
BBX 8 16 0 -4
BITMAP
00
00
00
00
00
3C
42
02
1E
02
42
3C
00
00
00
00
ENDCHAR
STARTCHAR char238
ENCODING 238
SWIDTH 500 0
DWIDTH 8 0
BBX 8 16 0 -4
BITMAP
00
00
00
00
00
CC
52
52
72
52
52
CC
00
00
00
00
ENDCHAR
STARTCHAR char239
ENCODING 239
SWIDTH 500 0
DWIDTH 8 0
BBX 8 16 0 -4
BITMAP
00
00
00
00
00
3E
44
44
44
3C
14
66
00
00
00
00
ENDCHAR
STARTCHAR char240
ENCODING 240
SWIDTH 500 0
DWIDTH 8 0
BBX 8 16 0 -4
BITMAP
44
00
FE
42
40
44
7C
44
40
40
42
FE
00
00
00
00
ENDCHAR
STARTCHAR char241
ENCODING 241
SWIDTH 500 0
DWIDTH 8 0
BBX 8 16 0 -4
BITMAP
00
00
00
24
00
3C
42
42
7E
40
42
3C
00
00
00
00
ENDCHAR
STARTCHAR char242
ENCODING 242
SWIDTH 500 0
DWIDTH 8 0
BBX 8 16 0 -4
BITMAP
00
00
00
C0
30
0C
02
0C
30
C0
00
FE
00
00
00
00
ENDCHAR
STARTCHAR char243
ENCODING 243
SWIDTH 500 0
DWIDTH 8 0
BBX 8 16 0 -4
BITMAP
00
00
00
06
18
60
80
60
18
06
00
FE
00
00
00
00
ENDCHAR
STARTCHAR char244
ENCODING 244
SWIDTH 500 0
DWIDTH 8 0
BBX 8 16 0 -4
BITMAP
00
0C
12
10
10
10
10
10
10
10
10
10
10
00
00
00
ENDCHAR
STARTCHAR char245
ENCODING 245
SWIDTH 500 0
DWIDTH 8 0
BBX 8 16 0 -4
BITMAP
10
10
10
10
10
10
10
10
10
10
10
90
90
60
00
00
ENDCHAR
STARTCHAR char246
ENCODING 246
SWIDTH 500 0
DWIDTH 8 0
BBX 8 16 0 -4
BITMAP
00
00
00
00
30
00
00
FE
00
00
30
00
00
00
00
00
ENDCHAR
STARTCHAR char247
ENCODING 247
SWIDTH 500 0
DWIDTH 8 0
BBX 8 16 0 -4
BITMAP
00
00
00
00
62
92
8C
00
62
92
8C
00
00
00
00
00
ENDCHAR
STARTCHAR char248
ENCODING 248
SWIDTH 500 0
DWIDTH 8 0
BBX 8 16 0 -4
BITMAP
00
18
24
24
18
00
00
00
00
00
00
00
00
00
00
00
ENDCHAR
STARTCHAR char249
ENCODING 249
SWIDTH 500 0
DWIDTH 8 0
BBX 8 16 0 -4
BITMAP
00
00
00
00
00
38
38
38
38
00
00
00
00
00
00
00
ENDCHAR
STARTCHAR char250
ENCODING 250
SWIDTH 500 0
DWIDTH 8 0
BBX 8 16 0 -4
BITMAP
00
00
00
00
00
00
38
38
00
00
00
00
00
00
00
00
ENDCHAR
STARTCHAR char251
ENCODING 251
SWIDTH 500 0
DWIDTH 8 0
BBX 8 16 0 -4
BITMAP
00
0F
08
08
08
88
88
48
48
28
28
18
00
00
00
00
ENDCHAR
STARTCHAR char252
ENCODING 252
SWIDTH 500 0
DWIDTH 8 0
BBX 8 16 0 -4
BITMAP
00
00
0F
08
08
0B
8B
C8
E8
B8
98
88
00
00
00
00
ENDCHAR
STARTCHAR char253
ENCODING 253
SWIDTH 500 0
DWIDTH 8 0
BBX 8 16 0 -4
BITMAP
00
30
48
10
20
78
00
00
00
00
00
00
00
00
00
00
ENDCHAR
STARTCHAR char254
ENCODING 254
SWIDTH 500 0
DWIDTH 8 0
BBX 8 16 0 -4
BITMAP
00
00
00
00
3C
3C
3C
3C
3C
3C
00
00
00
00
00
00
ENDCHAR
STARTCHAR char255
ENCODING 255
SWIDTH 500 0
DWIDTH 8 0
BBX 8 16 0 -4
BITMAP
00
00
00
00
00
00
00
00
00
00
00
00
00
00
00
00
ENDCHAR
ENDFONT
